<?xml version="1.0" standalone="no"?>
<!DOCTYPE svg PUBLIC "-//W3C//DTD SVG 20010904//EN"
 "http://www.w3.org/TR/2001/REC-SVG-20010904/DTD/svg10.dtd">
<svg version="1.0" xmlns="http://www.w3.org/2000/svg"
 width="256.000000pt" height="256.000000pt" viewBox="0 0 256.000000 256.000000"
 preserveAspectRatio="xMidYMid meet">
<metadata>
Created by potrace 1.16, written by Peter Selinger 2001-2019
</metadata>
<g transform="translate(0.000000,256.000000) scale(0.100000,-0.100000)"
fill="#000000" stroke="none">
<path d="M1440 2339 c-31 -12 -137 -115 -156 -151 -17 -32 -18 -101 -3 -131 6
-12 133 -145 282 -294 l272 -273 -845 0 c-480 0 -862 -4 -885 -10 -25 -6 -52
-22 -72 -44 l-33 -36 0 -110 c0 -125 11 -159 63 -190 31 -19 57 -20 907 -20
l875 0 -277 -277 c-152 -153 -281 -288 -287 -300 -15 -30 -14 -99 3 -131 8
-15 43 -55 78 -89 72 -68 113 -84 176 -65 29 9 142 117 530 504 l492 493 0 65
0 65 -487 488 c-278 278 -502 495 -520 503 -37 16 -77 17 -113 3z"/>
</g>
</svg>
