<?xml version="1.0" standalone="no"?>
<!DOCTYPE svg PUBLIC "-//W3C//DTD SVG 20010904//EN"
 "http://www.w3.org/TR/2001/REC-SVG-20010904/DTD/svg10.dtd">
<svg version="1.0" xmlns="http://www.w3.org/2000/svg"
 width="138.000000pt" height="226.000000pt" viewBox="0 0 138.000000 226.000000"
 preserveAspectRatio="xMidYMid meet">
<metadata>
Created by potrace 1.16, written by Peter Selinger 2001-2019
</metadata>
<g transform="translate(0.000000,226.000000) scale(0.100000,-0.100000)"
fill="#000000" stroke="none">
<path d="M335 2231 c-48 -22 -79 -54 -100 -103 -12 -29 -15 -77 -15 -217 0
-104 -4 -182 -10 -186 -5 -3 -9 -25 -8 -48 0 -29 -15 -81 -47 -162 -60 -151
-83 -244 -94 -370 -5 -55 -15 -125 -22 -155 -22 -100 7 -188 77 -235 l31 -21
-23 -21 c-30 -27 -39 -66 -24 -102 15 -37 48 -51 120 -51 33 0 60 -2 60 -4 0
-2 -45 -120 -101 -262 -73 -187 -98 -263 -91 -274 5 -8 24 -15 43 -15 l33 0
98 245 97 245 3 -245 3 -245 42 -3 43 -3 2 241 3 240 77 -202 c54 -143 76
-213 74 -238 -2 -19 -1 -25 1 -12 l4 22 249 0 249 0 4 -28 4 -27 2 28 1 27
121 0 121 0 -4 -25 c-3 -14 -1 -25 3 -25 16 0 10 50 -10 88 -13 24 -38 49 -75
71 -55 33 -90 71 -66 71 8 0 11 87 8 308 -3 307 -3 307 -29 363 -53 113 -145
168 -296 177 l-83 5 0 92 0 92 45 6 c57 6 70 18 133 120 27 45 68 102 90 128
35 39 40 51 40 92 -1 26 -5 50 -10 53 -4 3 -8 15 -8 28 0 27 -18 46 -42 46
-11 0 -32 10 -49 22 -26 19 -33 21 -62 10 -19 -7 -61 -12 -95 -12 l-62 0 0
-95 c0 -52 -3 -95 -6 -95 -4 0 -28 8 -55 17 -52 19 -63 38 -53 92 5 22 2 37
-9 49 -14 15 -16 44 -15 175 l2 157 108 0 c65 0 108 4 108 10 0 6 -43 10 -109
10 l-109 0 -7 31 c-9 41 -61 98 -110 120 -53 24 -147 24 -200 0z m190 -10 c22
-10 50 -29 62 -42 26 -28 55 -94 46 -103 -4 -3 -93 -6 -200 -6 -188 0 -193 1
-193 20 0 28 23 70 52 97 57 53 159 68 233 34z m88 -177 c27 -6 38 -33 15 -35
-10 0 -10 -2 0 -6 20 -8 14 -53 -10 -74 l-23 -19 23 -19 c19 -17 22 -29 22
-90 l0 -71 -205 0 -205 0 0 166 0 167 178 -6 c97 -4 189 -9 205 -13z m33 -125
c8 -14 -18 -31 -30 -19 -9 9 0 30 14 30 5 0 12 -5 16 -11z m374 -175 c0 -2 -7
-4 -15 -4 -8 0 -15 4 -15 10 0 5 7 7 15 4 8 -4 15 -8 15 -10z m-42 -101 l-3
-108 -49 -3 c-43 -3 -48 -1 -41 15 11 29 18 83 10 83 -3 0 -27 -16 -51 -36
l-44 -36 0 96 0 96 90 0 91 0 -3 -107z m102 72 c6 -8 9 -19 5 -25 -4 -6 -2
-16 3 -23 5 -7 12 -30 15 -51 6 -35 2 -43 -34 -85 -23 -25 -64 -83 -91 -128
-28 -45 -59 -90 -69 -99 -15 -13 -100 -33 -99 -23 1 2 15 56 33 119 l33 115
46 3 c26 2 52 9 58 17 7 9 24 12 48 9 40 -4 34 0 -10 10 -37 8 -35 29 5 49
l32 16 -32 0 c-42 1 -45 32 -5 49 l27 12 -27 -4 c-25 -3 -28 0 -28 25 0 27 3
29 39 29 22 0 44 -6 51 -15z m-413 -11 c3 -9 0 -20 -8 -25 -20 -13 -436 -12
-444 1 -4 6 -4 17 -1 25 4 13 42 15 226 15 193 0 221 -2 227 -16z m-97 -55
c47 -5 88 -15 92 -22 12 -19 1 -20 -48 -3 -32 11 -51 13 -58 6 -5 -5 -26 -67
-45 -137 -20 -69 -41 -128 -47 -130 -23 -8 -64 40 -108 127 -26 49 -49 90 -52
90 -13 0 92 -183 117 -204 37 -32 125 -59 214 -65 55 -5 71 -10 73 -23 2 -12
-5 -18 -25 -21 -19 -3 -12 -5 18 -6 53 -1 78 -21 55 -41 -9 -7 -29 -9 -48 -6
l-33 5 33 -11 c40 -14 41 -27 1 -35 -23 -4 -27 -8 -17 -15 8 -6 -16 -8 -68 -4
-134 9 -324 80 -372 139 -8 9 -29 44 -48 79 -41 77 -45 69 -5 -10 16 -31 46
-74 67 -95 46 -47 156 -101 260 -127 108 -28 157 -16 225 54 l49 50 0 -82 0
-82 -366 0 -367 0 8 82 c9 105 32 195 88 338 24 63 48 125 51 138 7 21 11 22
139 22 73 0 171 -5 217 -11z m446 -605 c74 -30 117 -66 150 -126 l29 -53 3
-312 3 -313 -115 0 -115 0 -3 323 -3 322 -29 58 c-26 54 -90 117 -120 117 -5
0 8 -12 30 -26 22 -14 50 -41 63 -59 46 -68 51 -107 51 -432 l0 -303 -160 0
-160 0 0 220 0 221 -25 24 c-24 25 -25 25 -223 25 -191 0 -200 1 -248 25 -67
33 -96 84 -97 168 0 34 5 81 12 105 l12 43 447 -3 c425 -3 450 -5 498 -24z
m-386 -616 c0 -72 -2 -129 -4 -127 -3 2 -27 62 -54 132 l-50 127 54 0 54 0 0
-132z m230 -208 c62 -8 89 -16 100 -29 8 -11 34 -28 57 -40 39 -19 83 -63 83
-82 0 -5 -106 -9 -235 -9 l-235 0 0 48 c0 26 3 64 6 85 l7 37 66 0 c37 0 105
-5 151 -10z m235 -1 c70 -8 95 -16 115 -34 14 -12 40 -30 58 -39 41 -21 72
-51 72 -71 0 -12 -19 -15 -115 -15 -64 0 -115 4 -115 9 0 19 -54 73 -94 93
-43 22 -56 34 -56 56 0 15 20 15 135 1z"/>
<path d="M404 1925 c-8 -21 2 -45 19 -45 8 0 20 7 27 15 10 12 10 18 0 30 -7
8 -19 15 -27 15 -7 0 -16 -7 -19 -15z m44 -15 c3 -7 0 -10 -7 -6 -6 4 -11 2
-11 -5 0 -10 -3 -10 -11 -2 -13 13 -2 36 14 30 6 -2 13 -9 15 -17z"/>
<path d="M855 1990 c16 -62 17 -72 2 -88 -21 -24 -29 -56 -21 -86 9 -39 26
-31 18 9 -5 26 -1 41 15 64 26 37 26 69 0 101 l-21 25 7 -25z"/>
<path d="M880 1880 c-17 -40 -3 -127 16 -107 4 3 1 20 -5 38 -9 26 -8 37 4 55
17 26 19 44 6 44 -5 0 -14 -14 -21 -30z"/>
</g>
</svg>
