<?xml version="1.0" standalone="no"?>
<!DOCTYPE svg PUBLIC "-//W3C//DTD SVG 20010904//EN"
 "http://www.w3.org/TR/2001/REC-SVG-20010904/DTD/svg10.dtd">
<svg version="1.0" xmlns="http://www.w3.org/2000/svg"
 width="256.000000pt" height="256.000000pt" viewBox="0 0 256.000000 256.000000"
 preserveAspectRatio="xMidYMid meet">
<metadata>
Created by potrace 1.16, written by Peter Selinger 2001-2019
</metadata>
<g transform="translate(0.000000,256.000000) scale(0.100000,-0.100000)"
fill="#000000" stroke="none">
<path d="M224 2540 c-52 -26 -189 -166 -209 -214 -19 -46 -19 -147 1 -194 10
-25 147 -169 422 -444 l406 -408 -406 -407 c-275 -276 -412 -420 -422 -445
-23 -54 -21 -152 4 -203 25 -52 166 -190 214 -210 46 -19 147 -19 194 0 25 11
168 146 444 423 l408 407 407 -407 c276 -275 420 -412 445 -422 54 -23 152
-21 203 4 52 25 190 166 210 214 19 46 19 147 -1 194 -10 25 -147 169 -422
445 l-406 407 406 408 c275 275 412 419 422 444 20 47 20 148 1 194 -20 48
-158 189 -210 214 -51 25 -149 27 -203 4 -25 -10 -169 -147 -445 -422 l-407
-407 -408 407 c-276 277 -419 412 -444 423 -54 22 -154 20 -204 -5z"/>
</g>
</svg>
