<?xml version="1.0" standalone="no"?>
<!DOCTYPE svg PUBLIC "-//W3C//DTD SVG 20010904//EN"
 "http://www.w3.org/TR/2001/REC-SVG-20010904/DTD/svg10.dtd">
<svg version="1.0" xmlns="http://www.w3.org/2000/svg"
 width="256.000000pt" height="256.000000pt" viewBox="0 0 256.000000 256.000000"
 preserveAspectRatio="xMidYMid meet">
<metadata>
Created by potrace 1.16, written by Peter Selinger 2001-2019
</metadata>
<g transform="translate(0.000000,256.000000) scale(0.100000,-0.100000)"
fill="#000000" stroke="none">
<path d="M1075 2496 c-131 -21 -233 -55 -370 -122 -149 -72 -237 -135 -350
-249 -175 -177 -294 -407 -340 -654 -19 -104 -19 -338 0 -444 44 -248 162
-473 345 -658 128 -129 259 -217 421 -284 97 -40 140 -44 169 -15 18 18 20 33
20 140 l0 121 -89 -7 c-74 -6 -100 -3 -158 14 -93 29 -140 71 -193 174 -51
100 -70 124 -138 178 -29 22 -50 46 -46 52 4 6 28 8 60 6 71 -6 120 -40 188
-131 70 -95 127 -127 225 -126 37 0 83 6 105 12 35 11 40 17 61 75 13 35 33
75 46 88 12 13 21 25 18 27 -2 2 -38 10 -79 17 -275 47 -437 191 -485 432 -37
187 -3 365 90 476 25 30 26 34 14 69 -19 54 -16 178 5 241 17 50 19 52 54 52
51 -1 160 -41 242 -89 l69 -41 68 17 c94 24 397 24 500 1 l72 -17 77 44 c90
51 183 85 234 85 33 0 38 -3 49 -37 19 -60 25 -184 12 -241 -12 -50 -12 -50
27 -109 65 -94 86 -168 85 -298 -1 -329 -154 -516 -475 -579 -106 -21 -109
-22 -90 -40 11 -9 31 -41 43 -69 22 -48 24 -68 29 -292 l5 -239 27 -15 c36
-21 90 -6 226 59 140 68 239 138 347 245 158 157 274 359 331 574 35 131 45
391 20 526 -47 253 -165 481 -341 660 -105 106 -196 173 -325 239 -116 59
-217 96 -330 121 -102 22 -370 28 -475 11z"/>
</g>
</svg>
