<?xml version="1.0" standalone="no"?>
<!DOCTYPE svg PUBLIC "-//W3C//DTD SVG 20010904//EN"
 "http://www.w3.org/TR/2001/REC-SVG-20010904/DTD/svg10.dtd">
<svg version="1.0" xmlns="http://www.w3.org/2000/svg"
 width="256.000000pt" height="256.000000pt" viewBox="0 0 256.000000 256.000000"
 preserveAspectRatio="xMidYMid meet">
<metadata>
Created by potrace 1.16, written by Peter Selinger 2001-2019
</metadata>
<g transform="translate(0.000000,256.000000) scale(0.100000,-0.100000)"
fill="#000000" stroke="none">
<path d="M1620 2301 c-93 -30 -155 -67 -220 -133 -110 -110 -170 -276 -154
-425 l6 -62 -53 5 c-359 35 -685 195 -937 458 -46 48 -86 86 -88 84 -19 -19
-58 -138 -66 -202 -21 -161 30 -313 145 -433 l62 -65 -45 7 c-39 6 -84 21
-152 50 -16 6 -18 1 -18 -36 0 -92 45 -209 112 -293 61 -77 103 -109 203 -157
l80 -38 -50 -3 c-27 -1 -76 -1 -107 1 -32 1 -58 0 -58 -3 0 -4 15 -37 33 -74
67 -140 225 -258 380 -285 l66 -11 -51 -34 c-78 -53 -223 -118 -313 -141 -103
-27 -241 -41 -330 -34 -64 6 -69 5 -56 -10 18 -23 239 -130 321 -156 149 -48
240 -62 430 -68 148 -4 207 -2 290 12 309 50 556 169 765 367 298 282 467 649
483 1046 l5 132 46 34 c70 52 211 210 211 237 0 5 -22 0 -49 -11 -43 -17 -106
-34 -192 -54 -23 -5 -16 5 40 62 62 61 131 172 131 208 0 8 -24 0 -65 -21 -36
-19 -110 -49 -166 -66 l-100 -32 -32 31 c-50 47 -126 91 -196 112 -83 26 -233
26 -311 1z"/>
</g>
</svg>
