<?xml version="1.0" standalone="no"?>
<!DOCTYPE svg PUBLIC "-//W3C//DTD SVG 20010904//EN"
 "http://www.w3.org/TR/2001/REC-SVG-20010904/DTD/svg10.dtd">
<svg version="1.0" xmlns="http://www.w3.org/2000/svg"
 width="3000.000000pt" height="2808.000000pt" viewBox="0 0 3000.000000 2808.000000"
 preserveAspectRatio="xMidYMid meet">
<metadata>
Created by potrace 1.16, written by Peter Selinger 2001-2019
</metadata>
<g transform="translate(0.000000,2808.000000) scale(0.100000,-0.100000)"
fill="#000000" stroke="none">
<path d="M76 28068 c4 -7 2608 -3490 5786 -7740 3179 -4250 5779 -7731 5778
-7735 -1 -4 -2619 -2836 -5818 -6292 -3199 -3456 -5819 -6287 -5820 -6292 -2
-5 563 -9 1315 -8 l1318 0 5094 5504 c2802 3028 5097 5502 5101 5500 5 -3
1859 -2480 4122 -5505 l4113 -5500 4468 0 c2904 0 4467 3 4465 10 -1 5 -2750
3682 -6107 8171 -3357 4488 -6104 8167 -6105 8175 0 7 2416 2624 5369 5815
2954 3190 5392 5825 5418 5855 l49 54 -1320 0 -1320 0 -4693 -5070 c-2581
-2789 -4696 -5067 -4700 -5063 -5 5 -1711 2285 -3792 5068 l-3784 5060 -4472
3 c-3578 2 -4471 0 -4465 -10z m17000 -14025 c4974 -6651 9044 -12095 9044
-12098 0 -3 -917 -5 -2038 -5 l-2038 0 -9039 12086 c-4972 6648 -9044 12093
-9048 12100 -7 12 313 14 2034 12 l2042 -3 9043 -12092z"/>
</g>
</svg>
