<?xml version="1.0" standalone="no"?>
<!DOCTYPE svg PUBLIC "-//W3C//DTD SVG 20010904//EN"
 "http://www.w3.org/TR/2001/REC-SVG-20010904/DTD/svg10.dtd">
<svg version="1.0" xmlns="http://www.w3.org/2000/svg"
 width="136.000000pt" height="230.000000pt" viewBox="0 0 136.000000 230.000000"
 preserveAspectRatio="xMidYMid meet">
<metadata>
Created by potrace 1.16, written by Peter Selinger 2001-2019
</metadata>
<g transform="translate(0.000000,230.000000) scale(0.100000,-0.100000)"
fill="#000000" stroke="none">
<path d="M845 2261 c-49 -22 -101 -79 -110 -120 l-7 -31 -109 0 c-66 0 -109
-4 -109 -10 0 -6 43 -10 109 -10 l109 0 1 -157 c0 -129 -3 -161 -16 -175 -11
-12 -14 -27 -9 -52 7 -38 -21 -120 -70 -203 l-25 -44 -29 31 -28 30 -222 0
c-133 0 -229 -4 -241 -10 -11 -6 -19 -21 -19 -35 0 -39 70 -288 85 -305 8 -9
15 -29 15 -43 l0 -27 113 -1 112 0 -51 -20 c-65 -25 -120 -78 -153 -148 -26
-56 -26 -56 -29 -363 -2 -210 0 -308 7 -308 25 0 -6 -34 -64 -71 -66 -41 -100
-93 -93 -140 l3 -24 384 -3 383 -2 -5 42 c-5 36 6 74 71 246 l77 202 5 -242 5
-243 28 -3 c56 -7 57 -1 58 262 l0 241 97 -244 c55 -138 105 -249 114 -255 19
-12 44 -2 61 25 6 10 -22 93 -92 273 -56 142 -101 260 -101 262 0 2 27 4 60 4
72 0 105 14 120 51 15 36 6 75 -24 102 l-23 21 31 21 c70 47 99 135 77 235 -7
30 -17 98 -21 150 -11 129 -31 207 -91 362 -34 89 -51 147 -51 175 1 23 -3 45
-8 48 -6 4 -10 83 -10 188 0 197 -9 236 -61 284 -59 54 -177 70 -254 34z m183
-6 c62 -27 112 -86 112 -135 0 -19 -5 -20 -193 -20 -107 0 -196 3 -200 6 -9 9
20 75 46 103 52 56 159 77 235 46z m122 -330 l0 -165 -204 0 -204 0 -1 90 c-1
50 -2 95 -4 102 -1 6 6 14 16 16 20 4 23 -17 5 -38 -11 -12 -10 -12 5 -1 23
18 22 42 -3 48 -14 4 -20 14 -20 34 0 16 5 29 13 29 8 0 7 3 -3 10 -8 5 -12
12 -8 15 11 12 135 22 271 24 l137 1 0 -165z m15 -200 c0 -19 -7 -20 -215 -22
-118 -2 -221 1 -229 6 -8 5 -11 16 -8 25 6 15 32 16 229 14 215 -3 223 -4 223
-23z m0 -57 c4 -13 29 -80 56 -151 56 -145 75 -219 85 -329 l7 -78 -367 0
-366 0 0 38 c0 33 5 40 48 67 85 53 142 115 184 200 50 100 38 91 -17 -13 -49
-92 -91 -127 -207 -172 -83 -32 -145 -41 -183 -27 -13 5 -12 4 3 -4 12 -7 22
-16 22 -20 0 -15 -22 -22 -30 -9 -6 9 -12 9 -28 -1 -27 -17 -38 -5 -24 26 16
35 6 31 -13 -5 -21 -40 -45 -40 -45 0 0 36 20 78 46 101 11 8 64 32 119 54 75
28 109 48 138 77 37 39 94 141 116 210 12 35 14 37 69 43 31 3 64 8 72 9 8 2
81 4 162 5 144 1 147 1 153 -21z m-697 -540 c3 -17 -9 -18 -142 -18 -115 0
-146 3 -146 13 0 8 3 17 7 21 4 3 68 5 142 4 120 -3 136 -5 139 -20z m102 2
c0 -17 -7 -20 -45 -20 -38 0 -45 3 -45 20 0 17 7 20 45 20 38 0 45 -3 45 -20z
m751 -72 c7 -24 12 -71 12 -105 -1 -126 -77 -193 -220 -193 l-74 0 36 31 c19
17 35 36 35 43 0 6 -10 -2 -21 -17 -41 -54 -58 -57 -309 -57 -140 0 -239 -4
-251 -10 -18 -10 -19 -24 -19 -245 l0 -235 -166 0 -165 0 3 313 3 312 29 53
c43 76 110 122 210 142 23 4 231 8 463 9 l422 1 12 -42z m-645 -330 c-18 -25
-21 -70 -6 -98 5 -10 23 -23 40 -28 l30 -11 0 -160 0 -161 -110 0 -110 0 0
234 c0 178 3 236 13 239 6 3 45 6 85 6 l73 1 -15 -22z m132 -265 c-27 -70 -51
-130 -54 -132 -2 -2 -4 55 -4 127 l0 132 54 0 54 0 -50 -127z m-306 -265 l2
-63 3 56 4 56 46 7 c25 3 75 6 110 6 58 0 64 -2 59 -17 -4 -10 -19 -48 -33
-85 l-26 -68 -74 0 c-69 0 -73 1 -74 23 l-2 22 -4 -22 -4 -23 -235 0 c-201 0
-234 2 -234 15 0 20 31 50 72 71 18 9 44 27 58 40 28 25 115 40 253 43 l77 1
2 -62z m26 -140 l-3 -23 -250 0 -250 0 -3 23 -3 22 256 0 256 0 -3 -22z m139
-3 l11 -25 -73 0 c-72 0 -72 0 -67 25 4 23 8 25 61 25 50 0 57 -3 68 -25z
m103 0 c0 -18 -5 -25 -20 -25 -17 0 -18 3 -8 25 6 14 15 25 20 25 4 0 8 -11 8
-25z"/>
<path d="M756 1868 c-7 -20 -3 -48 5 -48 12 0 39 42 33 52 -8 12 -34 10 -38
-4z m24 -8 c0 -5 -4 -10 -10 -10 -5 0 -10 5 -10 10 0 6 5 10 10 10 6 0 10 -4
10 -10z"/>
<path d="M1123 915 c0 -22 2 -30 4 -17 2 12 2 30 0 40 -3 9 -5 -1 -4 -23z"/>
</g>
</svg>
