<?xml version="1.0" standalone="no"?>
<!DOCTYPE svg PUBLIC "-//W3C//DTD SVG 20010904//EN"
 "http://www.w3.org/TR/2001/REC-SVG-20010904/DTD/svg10.dtd">
<svg version="1.0" xmlns="http://www.w3.org/2000/svg"
 width="512.000000pt" height="512.000000pt" viewBox="0 0 512.000000 512.000000"
 preserveAspectRatio="xMidYMid meet">
<metadata>
Created by potrace 1.16, written by Peter Selinger 2001-2019
</metadata>
<g transform="translate(0.000000,512.000000) scale(0.100000,-0.100000)"
fill="#000000" stroke="none">
<path d="M2503 5096 l-28 -24 2 -520 3 -520 -88 -4 c-79 -3 -93 -6 -125 -31
-21 -16 -48 -50 -62 -77 -23 -45 -25 -61 -25 -178 l0 -129 -98 -26 c-355 -93
-690 -288 -928 -540 -337 -357 -514 -773 -540 -1267 l-7 -129 31 -30 30 -31
535 0 535 0 17 -78 c73 -334 326 -579 659 -637 112 -19 180 -19 292 0 333 58
586 303 659 637 l17 78 538 0 538 0 28 32 c27 33 27 33 21 153 -13 274 -85
552 -203 786 -256 512 -705 885 -1219 1017 l-103 26 -4 146 c-4 167 -13 194
-89 245 -38 26 -55 30 -126 34 l-83 3 0 482 c0 264 -3 498 -6 518 -14 83 -108
118 -171 64z m267 -1366 l0 -91 -195 3 -195 3 0 88 0 87 195 0 195 0 0 -90z
m44 -316 c269 -42 506 -132 714 -273 119 -80 153 -108 261 -214 281 -276 458
-633 505 -1024 l13 -103 -1744 0 -1743 0 6 58 c28 266 116 532 247 742 235
376 627 670 1031 772 232 59 502 75 710 42z m362 -1841 c-3 -10 -8 -31 -12
-48 -16 -69 -80 -181 -143 -247 -117 -125 -257 -193 -420 -204 -235 -18 -484
129 -588 346 -22 48 -53 139 -53 163 0 4 275 7 611 7 577 0 610 -1 605 -17z"/>
<path d="M1585 1243 c-64 -34 -393 -227 -438 -256 -58 -39 -76 -86 -53 -141
17 -41 42 -56 94 -56 32 0 82 25 282 143 134 78 252 153 262 167 10 14 19 43
20 64 3 77 -89 121 -167 79z"/>
<path d="M3409 1231 c-35 -36 -40 -95 -10 -133 11 -13 131 -89 267 -168 262
-153 285 -161 340 -125 48 31 59 108 22 149 -13 14 -132 88 -265 166 -205 119
-248 140 -283 140 -33 0 -48 -6 -71 -29z"/>
<path d="M1978 860 c-24 -18 -285 -455 -307 -512 -36 -95 88 -183 163 -116 13
13 86 129 161 258 160 273 170 306 117 360 -37 37 -95 41 -134 10z"/>
<path d="M3037 869 c-28 -16 -50 -68 -44 -105 7 -45 261 -481 303 -522 45 -43
91 -44 136 -3 28 25 33 36 33 73 0 37 -19 75 -134 273 -148 256 -180 295 -238
295 -21 0 -46 -5 -56 -11z"/>
<path d="M2532 728 c-63 -17 -67 -32 -70 -328 -2 -146 0 -285 3 -309 9 -62 41
-91 100 -91 55 0 90 29 100 81 3 19 5 161 3 316 -3 279 -3 282 -26 306 -27 28
-64 37 -110 25z"/>
</g>
</svg>
